<svg width="313" height="127" viewBox="0 0 313 127" fill="none" xmlns="http://www.w3.org/2000/svg">
<path fill-rule="evenodd" clip-rule="evenodd" d="M42.2536 39.8336C39.926 40.1052 38.1497 41.9955 37.984 44.3802C37.9134 45.4068 37.9351 45.4775 40.2655 51.4717C45.5645 65.1061 46.8492 68.3898 47.0638 68.8515C47.588 69.9705 48.3213 71.0216 49.242 71.9668C49.9482 72.6919 50.4127 73.0803 51.1976 73.6072C52.5801 74.5307 53.2672 74.786 58.6451 76.3776C63.8843 77.9284 66.7471 78.9605 69.216 80.1854C72.4128 81.7716 74.6427 83.575 76.0523 85.7179C77.0654 87.2552 77.9617 90.0092 78.3501 92.7823C78.5022 93.866 78.5049 96.2615 78.3528 97.242C78.0242 99.3686 77.3669 101.15 76.3619 102.641C75.8269 103.434 76.0143 103.301 76.7911 102.335C78.9911 99.5995 81.2318 94.9252 82.3753 90.6855C83.7578 85.555 83.9479 80.0469 82.9158 74.8321C80.9086 64.677 74.4987 55.9151 65.4705 50.9855C64.9029 50.6759 62.7436 49.5433 59.813 48.0197C59.3675 47.7888 58.7618 47.471 58.4658 47.3162C58.1697 47.1614 57.5641 46.8436 57.1186 46.6128C56.6732 46.3819 55.3939 45.7138 54.2749 45.1325C53.1559 44.5486 51.9038 43.8967 51.4909 43.6822C50.2361 43.0276 49.3941 42.5876 48.7667 42.259C45.8633 40.7407 44.6356 40.1242 44.2852 40.0183C43.9186 39.9069 42.9842 39.763 42.7507 39.782C42.7018 39.782 42.4791 39.8091 42.2536 39.8336Z" fill="url(#paint0_radial_9_633)"/>
<path d="M48.5828 90.7377C48.4226 90.8328 48.1971 90.9713 48.0803 91.0446C47.9663 91.118 47.7082 91.2782 47.5127 91.3977C46.7875 91.8431 44.8591 93.03 43.2023 94.054C42.1131 94.7248 41.9529 94.8253 40.5677 95.6836C40.0734 95.9905 39.5492 96.3137 39.3998 96.4006C39.2504 96.4902 38.6176 96.8786 37.9929 97.267C37.3682 97.6554 36.2763 98.329 35.5674 98.7635C34.8585 99.1981 33.5929 99.9803 32.7536 100.499C31.9143 101.018 30.8089 101.7 30.2983 102.012C29.7876 102.324 29.3178 102.626 29.2499 102.683C29.1521 102.767 24.6136 105.578 22.3348 106.966C20.6046 108.02 18.6029 108.723 16.555 109C15.6017 109.128 13.7955 109.131 12.8449 109C10.2673 108.653 7.89076 107.691 5.85643 106.173C5.05791 105.578 3.55593 104.076 2.98284 103.299C1.63024 101.471 0.752953 99.5132 0.299371 97.2942C0.19616 96.7836 0.0956627 96.3517 0.0793663 96.3354C0.0359093 96.292 0.114676 97.0633 0.25048 98.071C0.394431 99.1193 0.701344 100.635 1.02999 101.933C3.58037 111.969 10.8377 120.13 20.6644 124.014C23.4945 125.133 26.3491 125.837 29.4563 126.182C30.6242 126.312 33.9269 126.364 35.1464 126.271C40.7334 125.848 45.5978 124.204 50.5872 121.051C51.0327 120.771 51.8665 120.245 52.4423 119.881C53.0181 119.517 53.746 119.058 54.0584 118.857C54.3707 118.656 54.7483 118.419 54.8976 118.33C55.047 118.24 55.3431 118.055 55.5549 117.917C55.7695 117.778 56.6848 117.2 57.5893 116.629L61.2098 114.343L62.4537 113.558L62.4972 113.531L62.633 113.444L62.6982 113.403L63.6135 112.824L66.7777 110.825C70.8083 108.294 72.0088 107.403 73.8829 105.57C74.6624 104.807 75.8412 103.5 75.8982 103.335C75.9091 103.302 76.1182 102.979 76.3627 102.618C77.354 101.151 78.014 99.3556 78.3427 97.2371C78.4948 96.2567 78.4921 93.8611 78.34 92.7774C78.0439 90.6807 77.3758 88.3042 76.6533 86.7914C75.4691 84.3089 72.9486 82.0546 69.3254 80.2376C68.3259 79.7351 67.291 79.2761 67.177 79.2843C67.1226 79.287 63.752 81.3485 59.6833 83.8635C55.6174 86.3785 52.0892 88.5622 51.8421 88.717C51.5949 88.8691 51.1712 89.1298 50.8996 89.2928L48.5828 90.7377Z" fill="url(#paint1_radial_9_633)"/>
<path d="M0.0244436 78.6674L0.0407393 96.1911L0.268892 97.2096C0.977784 100.39 2.20816 102.685 4.34298 104.817C5.34793 105.819 6.11657 106.422 7.20571 107.069C9.50893 108.432 11.9887 109.106 14.7048 109.103C17.5485 109.1 20.0119 108.391 22.546 106.841C22.9752 106.58 24.651 105.548 26.2725 104.546L29.2194 102.726V81.9348V61.1437V42.1234C29.2194 29.9883 29.1977 22.7827 29.1569 22.215C28.9152 18.6625 27.4295 15.3951 24.9307 12.9263C24.1648 12.1685 23.5075 11.6606 21.5574 10.3189C20.585 9.65075 18.8087 8.42582 17.6055 7.59744C16.405 6.76905 14.425 5.40561 13.2055 4.56636C11.986 3.72712 10.2504 2.52936 9.34325 1.90467C7.45831 0.603702 7.30892 0.514075 6.73855 0.310374C5.99706 0.0442044 5.21212 -0.0535745 4.46249 0.027906C2.28421 0.264199 0.540494 1.83677 0.0869118 3.97427C0.0162942 4.30563 0.00271457 8.73273 0.00271457 32.7559V61.1464H0L0.0244436 78.6674Z" fill="url(#paint2_linear_9_633)"/>
<path d="M122.511 100.097V25.8871H146.078C153.254 25.8871 158.963 27.4569 163.151 30.5994C167.339 33.7418 169.436 37.8267 169.436 42.854C169.436 47.0448 168.233 50.7087 165.875 53.8512C163.355 57.0398 159.892 59.3484 155.978 60.4511V60.6602C161.111 61.236 165.142 63.1209 168.181 66.3693C171.272 69.5117 172.79 73.7025 172.79 78.7815C172.79 85.1179 170.275 90.3028 165.3 94.1786C160.321 98.0543 153.987 100.097 146.339 100.097H122.511ZM134.817 35.7842V56.8904H142.778C147.072 56.8904 150.424 55.842 152.833 53.9055C155.294 51.8114 156.497 48.9813 156.497 45.3174C156.497 38.9294 152.254 35.7869 143.772 35.7869H134.817V35.7842ZM134.817 66.7875V90.2485H145.293C149.9 90.2485 153.463 89.2001 155.924 87.106C158.439 84.9577 159.696 82.0271 159.696 78.3089C159.696 70.609 154.405 66.7875 143.723 66.7875H134.817ZM187.818 35.9961C185.879 35.9961 184.152 35.3144 182.791 34.0596C181.376 32.802 180.697 31.1779 180.697 29.1897C180.697 27.1989 181.379 25.5774 182.791 24.2656C184.206 22.9565 185.882 22.3291 187.87 22.3291C189.858 22.3291 191.588 22.9565 193.003 24.2656C194.418 25.5747 195.097 27.2505 195.097 29.1897C195.097 31.0747 194.416 32.6472 193.003 34.008C191.588 35.3144 189.861 35.9961 187.818 35.9961ZM193.788 100.097H181.797V47.0964H193.843L193.788 100.097ZM253.232 100.097H241.238V70.245C241.238 60.2936 237.729 55.3721 230.765 55.3721C227.098 55.3721 224.062 56.7872 221.652 59.5629C219.227 62.4419 217.959 66.1194 218.092 69.8811V100.097H206.046V47.0964H218.092V55.8936H218.301C219.941 52.7811 222.418 50.1927 225.455 48.4137C228.491 46.6374 231.963 45.7439 235.477 45.8389C241.238 45.8389 245.638 47.7238 248.675 51.4964C251.711 55.2146 253.232 60.6086 253.232 67.73V100.097ZM312.673 95.8543C312.673 115.285 302.933 125.024 283.345 125.024C277.144 125.166 270.987 123.987 265.278 121.567V110.57C271.039 113.921 276.59 115.545 281.775 115.545C294.345 115.545 300.682 109.366 300.682 96.9543V91.1936H300.473C298.732 94.3849 296.132 97.0249 292.965 98.8121C289.801 100.599 286.194 101.46 282.563 101.303C279.6 101.398 276.653 100.814 273.947 99.5997C271.242 98.3829 268.852 96.5659 266.956 94.2845C262.782 88.8551 260.685 82.114 261.038 75.2751C261.038 66.2661 263.132 59.1447 267.426 53.8023C271.72 48.4599 277.481 45.8416 284.918 45.8416C291.882 45.8416 297.069 48.7233 300.473 54.4297H300.682V47.0964H312.725L312.673 95.8543ZM300.785 75.8482V68.9359C300.785 65.2177 299.527 62.0236 297.067 59.4054C295.907 58.118 294.484 57.0968 292.892 56.4096C291.303 55.7225 289.581 55.3884 287.851 55.4264C283.293 55.4264 279.733 57.1538 277.166 60.5054C274.36 64.6473 272.997 69.5986 273.29 74.5934C273.29 79.8298 274.548 83.969 276.954 87.1088C279.469 90.2512 282.715 91.7694 286.8 91.7694C290.991 91.7694 294.342 90.2512 296.909 87.3179C299.527 84.2814 300.785 80.5089 300.785 75.7966V75.8482Z" fill="#737373"/>
<defs>
<radialGradient id="paint0_radial_9_633" cx="0" cy="0" r="1" gradientTransform="matrix(-42.7408 -49.3249 -35.492 30.7534 80.7121 89.1017)" gradientUnits="userSpaceOnUse">
<stop stop-color="#00CACC"/>
<stop offset="1" stop-color="#048FCE"/>
</radialGradient>
<radialGradient id="paint1_radial_9_633" cx="0" cy="0" r="1" gradientTransform="matrix(64.8895 -27.805 -46.3388 -108.139 10.9589 112.886)" gradientUnits="userSpaceOnUse">
<stop stop-color="#00BBEC"/>
<stop offset="1" stop-color="#2756A9"/>
</radialGradient>
<linearGradient id="paint2_linear_9_633" x1="14.6151" y1="-0.00292047" x2="14.6151" y2="109.1" gradientUnits="userSpaceOnUse">
<stop stop-color="#00BBEC"/>
<stop offset="1" stop-color="#2756A9"/>
</linearGradient>
</defs>
</svg>
