<svg data-wf--global-logo--variant="base" xmlns="http://www.w3.org/2000/svg" width="100%" viewBox="0 0 232 85" fill="none" class="g_logo_wrap u-height-full" style=""><g clip-path="url(#clip0_115_16)" class="g_logo_wrap"><path d="M21.576 65.941C21.576 70.5046 20.9838 74.1294 19.7996 76.8156C18.6154 79.5018 17.0412 81.4225 15.0772 82.5779C13.1131 83.7332 11.0335 84.3109 8.83834 84.3109C7.04757 84.3109 5.48786 84.022 4.15922 83.4444C2.83058 82.8667 1.80522 82.0724 1.08313 81.0615C0.361043 80.0506 0 78.8808 0 77.5521C0 76.2235 0.375485 75.2559 1.12646 74.476C1.87743 73.6962 2.91723 73.3063 4.24587 73.3063C5.34344 73.3063 6.22439 73.5807 6.88871 74.1294C7.55303 74.6782 8.14514 75.5881 8.66504 76.8589C9.30048 78.0143 9.82038 78.8374 10.2247 79.3285C10.6291 79.8195 11.1201 80.065 11.6978 80.065C12.5643 80.065 13.2142 79.7328 13.6474 79.0685C14.0807 78.4042 14.2973 77.5232 14.2973 76.4257C14.2973 75.2703 14.1096 74.1583 13.7341 73.0896C13.3586 72.0209 12.882 70.7934 12.3044 69.407C11.7267 68.0206 11.2501 66.3742 10.8746 64.4679C10.4991 62.5616 10.3114 60.2509 10.3114 57.5359V32.0607C10.3114 30.0966 10.2247 28.638 10.0514 27.6848C9.87815 26.7317 9.47378 26.1684 8.83834 25.9951C8.20291 25.8218 7.1631 25.9662 5.71893 26.4284V23.9155L21.576 17.2434V65.941ZM20.6228 11.2212C21.7781 9.97924 22.3558 8.43397 22.3558 6.58543C22.3558 4.73689 21.7781 3.17718 20.6228 1.90631C19.4675 0.635437 17.9078 0 15.9437 0C13.9796 0 12.3766 0.635437 11.1346 1.90631C9.89259 3.17718 9.2716 4.73689 9.2716 6.58543C9.2716 8.43397 9.89259 9.97924 11.1346 11.2212C12.3766 12.4632 13.9796 13.0842 15.9437 13.0842C17.9078 13.0842 19.4675 12.4632 20.6228 11.2212Z" fill="#FA4028"></path><path d="M39.1804 67.6741C36.7542 67.6741 34.6313 67.1686 32.8116 66.1577C30.992 65.1468 29.5189 63.7026 28.3925 61.8252C27.266 59.9477 26.7028 57.7382 26.7028 55.1964C26.7028 52.4236 27.1649 50.0985 28.0892 48.2211C29.0135 46.3436 30.371 44.7695 32.1618 43.4986C33.9525 42.2277 36.1188 41.1879 38.6605 40.3792C40.278 39.8015 41.8522 39.2672 43.383 38.7762C44.9138 38.2851 46.3147 37.6641 47.5855 36.9132C49.1452 36.0467 50.2139 35.0213 50.7916 33.8371C51.3693 32.6529 51.6581 31.1654 51.6581 29.3746C51.6581 26.8328 51.1238 24.8688 50.0551 23.4824C48.9864 22.096 47.3834 21.4027 45.246 21.4027C43.6285 21.4027 42.3865 21.7494 41.52 22.4426C40.6535 23.1358 40.047 24.1178 39.7004 25.3887C39.3538 26.6595 39.0071 28.0748 38.6605 29.6345C38.4872 31.1942 38.0251 32.4507 37.2741 33.4038C36.5232 34.357 35.2234 34.8336 33.3749 34.8336C31.6996 34.8336 30.3999 34.3281 29.4756 33.3172C28.5513 32.3063 28.0892 31.0209 28.0892 29.4612C28.0892 27.2661 28.8402 25.2587 30.3421 23.439C31.844 21.6194 33.9525 20.1608 36.6676 19.0632C39.3826 17.9656 42.5598 17.4168 46.1991 17.4168C49.3763 17.4168 52.1636 17.9223 54.5609 18.9332C56.9582 19.9441 58.8357 21.5327 60.1932 23.699C61.5507 25.8652 62.2295 28.6525 62.2295 32.0608V57.536C62.2295 58.6335 62.4172 59.4567 62.7927 60.0055C63.1682 60.5543 63.7603 60.8287 64.569 60.8287C65.2045 60.8287 65.7677 60.6265 66.2587 60.2221C66.7497 59.8178 67.1974 59.3556 67.6018 58.8357L69.0748 60.4821C68.6127 61.4064 68.0062 62.4173 67.2552 63.5148C66.5042 64.6124 65.4644 65.5511 64.1358 66.331C62.8071 67.1108 61.1897 67.5008 59.2833 67.5008C57.377 67.5008 55.904 67.1253 54.6909 66.3743C53.4778 65.6233 52.5824 64.598 52.0047 63.2982C51.427 61.9985 51.1382 60.5687 51.1382 59.009V38.5595C50.8494 38.8484 50.5172 39.2239 50.1417 39.686C49.7662 40.1481 49.2319 40.6103 48.5387 41.0724C47.8455 41.4768 47.2389 41.8378 46.719 42.1555C46.1991 42.4732 45.6503 42.7765 45.0727 43.0653C44.495 43.3542 43.744 43.7874 42.8198 44.3651C41.7222 45.0005 40.769 45.7082 39.9603 46.488C39.1516 47.2679 38.5595 48.1633 38.184 49.1742C37.8085 50.1851 37.6207 51.3838 37.6207 52.7702C37.6207 55.4275 38.2562 57.406 39.5271 58.7058C40.7979 60.0055 42.2999 60.6554 44.0329 60.6554C45.7659 60.6554 47.2967 60.1355 48.452 59.0957C49.6074 58.0559 50.6472 56.785 51.5715 55.2831L52.0047 59.009C51.3693 60.2799 50.4883 61.5797 49.3619 62.9083C48.2354 64.2369 46.849 65.3634 45.2027 66.2877C43.5563 67.2119 41.5489 67.6741 39.1804 67.6741Z" fill="#FA4028"></path><path d="M106.984 83.5309V81.0181C108.313 81.0181 109.324 80.7726 110.017 80.2815C110.71 79.7905 111.057 78.4474 111.057 76.2523V32.0606C111.057 30.0965 110.97 28.6379 110.797 27.6847C110.624 26.7316 110.234 26.1683 109.627 25.995C109.021 25.8217 107.995 25.9662 106.551 26.4283V23.9154L122.235 17.2434V76.2523C122.235 77.7542 122.394 78.8374 122.712 79.5017C123.029 80.166 123.578 80.5848 124.358 80.7581C125.138 80.9314 126.221 81.0181 127.607 81.0181V83.5309H106.984ZM125.008 66.6341C123.448 66.1142 122.047 65.3632 120.805 64.3812C119.563 63.3991 118.393 62.3593 117.296 61.2618L122.235 51.2103C122.235 53.6365 122.625 55.7739 123.405 57.6225C124.185 59.471 125.297 60.9296 126.741 61.9983C128.185 63.067 129.831 63.6013 131.68 63.6013C133.297 63.6013 134.799 63.0814 136.186 62.0416C137.572 61.0018 138.67 59.2399 139.478 56.7559C140.287 54.272 140.691 51.037 140.691 47.0511C140.691 42.3142 140.316 38.285 139.565 34.9634C138.814 31.6418 137.745 29.1 136.359 27.3381C134.973 25.5762 133.182 24.6953 130.987 24.6953C129.774 24.6953 128.604 24.9552 127.477 25.4751C126.351 25.995 125.268 26.7749 124.228 27.8147C123.188 28.8545 122.293 30.1254 121.542 31.6273L120.415 28.8545C121.34 26.8327 122.524 24.9552 123.968 23.2222C125.412 21.4892 127.131 20.0884 129.124 19.0197C131.117 17.951 133.384 17.4167 135.926 17.4167C139.045 17.4167 141.847 18.312 144.331 20.1028C146.815 21.8936 148.75 24.4931 150.136 27.9014C151.523 31.3096 152.216 35.4977 152.216 40.4657C152.216 46.2424 151.263 51.1092 149.357 55.0663C147.45 59.0233 144.865 62.0705 141.601 64.2079C138.337 66.3453 134.597 67.4139 130.38 67.4139C128.358 67.4139 126.567 67.154 125.008 66.6341Z" fill="#FA4028"></path><path d="M176.68 67.4139C172.29 67.4139 168.579 66.3452 165.546 64.2079C162.513 62.0705 160.188 59.1821 158.57 55.5428C156.953 51.9035 156.144 47.8309 156.144 43.3251C156.144 39.6858 156.65 36.3064 157.661 33.187C158.672 30.0676 160.116 27.3381 161.993 24.9986C163.871 22.659 166.066 20.8393 168.579 19.5396C171.091 18.2398 173.908 17.5899 177.027 17.5899C180.666 17.5899 183.786 18.4276 186.385 20.1028C188.985 21.778 191.021 24.2043 192.494 27.3814C193.967 30.5586 194.704 34.4579 194.704 39.0792H163.076V35.18H183.352C183.121 30.5586 182.313 27.107 180.926 24.8253C179.54 22.5435 177.72 21.4026 175.467 21.4026C174.139 21.4026 172.839 21.8791 171.568 22.8323C170.297 23.7854 169.243 25.3885 168.405 27.6414C167.568 29.8943 167.149 32.9559 167.149 36.8263C167.149 41.3899 167.683 45.3181 168.752 48.6108C169.821 51.9035 171.395 54.4308 173.474 56.1927C175.554 57.9546 178.067 58.8355 181.013 58.8355C183.728 58.8355 186.01 58.0846 187.858 56.5826C189.707 55.0807 191.18 52.8855 192.277 49.9972L194.964 51.037C194.328 54.0409 193.245 56.7848 191.714 59.2688C190.183 61.7528 188.19 63.7313 185.735 65.2043C183.28 66.6774 180.262 67.4139 176.68 67.4139Z" fill="#FA4028"></path><path d="M219.37 66.634H198.747V64.0345C199.903 64.0345 200.827 63.8034 201.52 63.3413C202.213 62.8792 202.56 61.5505 202.56 59.3554V32.3204C202.56 30.2986 202.502 28.7967 202.387 27.8146C202.271 26.8326 201.896 26.2549 201.26 26.0816C200.625 25.9083 199.614 26.0527 198.227 26.5149V23.9153L213.911 17.1566V59.3554C213.911 60.9151 214.055 62.0126 214.344 62.6481C214.633 63.2835 215.182 63.6734 215.991 63.8179C216.799 63.9623 217.926 64.0345 219.37 64.0345V66.634ZM219.283 26.4282C218.59 26.4282 217.897 26.8037 217.204 27.5547C216.511 28.3056 215.817 29.3021 215.124 30.5441C214.431 31.7861 213.767 33.1581 213.131 34.66L212.005 31.194C212.64 29.5765 213.377 27.9735 214.214 26.3849C215.052 24.7963 216.077 23.3377 217.29 22.009C218.504 20.6804 219.746 19.5828 221.016 18.7163C222.287 17.8498 223.674 17.4166 225.176 17.4166C227.197 17.4166 228.772 18.0087 229.898 19.1929C231.025 20.3771 231.588 22.0668 231.588 24.2619C231.588 26.226 231.126 27.7713 230.201 28.8977C229.277 30.0242 228.006 30.5874 226.389 30.5874C225.349 30.5874 224.511 30.3852 223.876 29.9809C223.24 29.5765 222.692 29.0855 222.23 28.5078C221.767 27.9302 221.305 27.4391 220.843 27.0348C220.381 26.6304 219.861 26.4282 219.283 26.4282Z" fill="#FA4028"></path><path d="M94.9111 57.1461C94.9111 56.1063 94.7089 55.1242 94.3046 54.2C93.9002 53.2757 93.207 52.337 92.225 51.3838C91.2429 50.4307 89.8854 49.4631 88.1524 48.481L81.3937 44.3218C78.8519 42.7043 76.7723 40.798 75.1548 38.6029C73.5374 36.4077 72.7286 33.6927 72.7286 30.4577C72.7286 27.8582 73.3496 25.6053 74.5916 23.699C75.8336 21.7927 77.5233 20.3341 79.6606 19.3232C81.798 18.3122 84.2242 17.8068 86.9393 17.8068C88.7878 17.8068 90.3186 18.009 91.5318 18.4133C92.7449 18.8177 93.7702 19.2221 94.6078 19.6264C95.4455 20.0308 96.0953 20.233 96.5575 20.233C97.0774 20.233 97.4673 20.0741 97.7273 19.7564C97.9872 19.4387 98.1461 19.0199 98.2038 18.5H101.41V31.9308H97.8572C97.5106 29.909 96.8463 28.1471 95.8643 26.6451C94.8822 25.1432 93.6114 24.0023 92.0517 23.2224C90.492 22.4426 88.6723 22.0527 86.5927 22.0527C85.1485 22.0527 83.9498 22.4715 82.9967 23.3091C82.0435 24.1467 81.567 25.3165 81.567 26.8184C81.567 28.5514 82.0869 29.9812 83.1267 31.1076C84.1665 32.2341 85.7839 33.4905 87.9791 34.8769L94.7378 39.0361C96.7019 40.1915 98.4205 41.5057 99.8935 42.9787C101.367 44.4518 102.507 46.0693 103.316 47.8311C104.125 49.593 104.529 51.5427 104.529 53.68C104.529 56.1063 103.894 58.3592 102.623 60.4388C101.352 62.5184 99.518 64.1792 97.1207 65.4212C94.7234 66.6632 91.8784 67.2842 88.5856 67.2842C86.4483 67.2842 84.6142 67.0242 83.0833 66.5043C81.5525 65.9844 80.325 65.4501 79.4007 64.9013C78.4764 64.3525 77.7832 64.0781 77.3211 64.0781C76.6279 64.0781 76.1513 64.3814 75.8914 64.9879C75.6314 65.5945 75.4725 66.1577 75.4148 66.6776H72.2087V50.8206H75.7614C75.9347 53.3623 76.6134 55.5286 77.7977 57.3194C78.9819 59.1101 80.4549 60.511 82.2168 61.5219C83.9787 62.5328 85.8995 63.0383 87.9791 63.0383C90.232 63.0383 91.9506 62.5617 93.1348 61.6086C94.319 60.6554 94.9111 59.1679 94.9111 57.1461Z" fill="#FA4028"></path></g></svg>