<svg width="528" height="103" viewBox="0 0 528 103" fill="none" xmlns="http://www.w3.org/2000/svg">
<path d="M216.236 22.5375C213.988 23.9144 211.052 25.3638 207.426 26.8856L206.991 90.5844L191.656 91.9977L157.287 39.2775L158.918 52.6477V83.6277L168.489 85.0408L168.38 90.5844H138.471L137.818 87.1062C139.921 85.7292 143.003 84.2436 147.063 82.6492V25.7985L139.45 24.6028L139.559 19.0591H163.704L163.595 19.1678L197.203 71.6704L195.571 57.8654V26.1246L185.021 24.6028L185.13 19.0591H215.584L216.236 22.5375Z" fill="#191B31"/>
<path d="M216.811 64.3876C216.811 56.1989 219.312 49.5319 224.315 44.3867C229.391 39.2415 235.699 36.6689 243.24 36.6689C250.781 36.6689 256.98 39.3138 261.838 44.6041C266.77 49.8216 269.234 56.5973 269.234 64.9312C269.234 73.3375 266.806 80.0768 261.947 85.1496C257.162 90.2222 251.034 92.7587 243.566 92.7587C235.953 92.7587 229.572 90.0774 224.424 84.7147C219.348 79.3521 216.811 72.5764 216.811 64.3876ZM248.026 83.3017C251.433 80.9104 253.137 75.2216 253.137 66.2356C253.137 60.2933 252.231 55.4378 250.418 51.6696C248.678 47.8288 245.995 45.9085 242.37 45.9085C240.195 45.9085 238.346 46.4157 236.823 47.4303C234.213 50.9088 232.907 56.4886 232.907 64.1702C232.907 69.9677 233.85 74.7141 235.735 78.4101C237.621 82.0334 240.485 83.8453 244.328 83.8453C245.633 83.8453 246.865 83.664 248.026 83.3017Z" fill="#191B31"/>
<path d="M327.869 43.7345L322.214 46.5607C314.602 66.5619 308.874 81.1277 305.03 90.2588C302.493 91.0557 299.375 91.4544 295.677 91.4544C293.21 91.4544 290.964 91.2731 288.932 90.9108L273.38 47.5392L266.746 44.6043V38.9517H295.024L295.349 43.7345L290.019 46.452L296.655 67.4314L298.178 76.8884H300.135C302.311 68.1199 304.595 58.047 306.987 46.6694L301.441 44.6043L301.548 38.9517H327.543L327.869 43.7345Z" fill="#191B31"/>
<path d="M369.382 64.7138L341.646 64.3876C341.937 69.7503 343.605 73.9172 346.65 76.8883C349.695 79.8596 353.575 81.345 358.288 81.345C362.202 81.345 366.845 80.0406 372.208 77.4319L374.493 83.1929L357.416 91.9979L353.937 92.2151C345.96 92.2151 339.4 89.715 334.25 84.7147C329.102 79.6421 326.528 73.2288 326.528 65.4746C326.528 57.3584 329.139 50.5462 334.359 45.0388C339.579 39.4587 345.924 36.6689 353.393 36.6689C359.92 36.6689 365.249 38.6979 369.382 42.7562C373.588 46.7419 375.69 51.9596 375.69 58.4091L369.382 64.7138ZM349.586 44.93C345.817 47.1042 343.387 51.0898 342.299 56.8873L361.114 55.9089C360.607 52.7929 359.267 50.1839 357.091 48.0824C354.988 45.9808 352.487 44.93 349.586 44.93Z" fill="#191B31"/>
<path d="M403.357 81.9973C406.763 83.0843 409.41 84.1715 411.297 85.2584L410.862 90.5846H379.646L379.321 86.8889C381.494 85.6569 384.25 84.4612 387.586 83.3017V20.4724L379.428 19.6028L378.668 14.3851C384.903 11.9937 391.357 10.7255 398.027 10.5806L403.357 15.3634V81.9973Z" fill="#191B31"/>
<path d="M492.976 85.0407L492.866 90.5844H458.606L457.952 87.1061C459.982 85.8741 463.136 84.3523 467.415 82.5407L462.848 70.8009H436.961L432.176 83.6276L442.182 85.0407L442.075 90.5844H412.491L411.838 87.1061C414.013 85.7292 417.022 84.2797 420.866 82.7579L444.901 23.7332L443.598 20.3634L457.846 16.4502L485.252 83.9538L492.976 85.0407ZM459.693 62.5395L449.906 36.8859L440.116 62.5395H459.693Z" fill="#191B31"/>
<path d="M527.504 85.0408L527.394 90.5844H492.374L491.721 87.1062C493.823 85.7292 496.905 84.2436 500.967 82.6492V25.7985L492.59 24.6028L492.699 19.0591H525.981L526.635 22.5375C523.951 24.1318 520.907 25.6174 517.497 26.9944V83.6277L527.504 85.0408Z" fill="#191B31"/>
<path fill-rule="evenodd" clip-rule="evenodd" d="M14.5556 80.9341C10.9746 75.0909 6.58693 70.2253 1.39256 66.8698C-0.0861268 65.9145 -0.459514 63.7934 0.623049 62.4056C10.032 50.3437 24.7018 18.7463 32.3751 1.53714C33.5189 -1.02762 37.4415 -0.188763 37.4415 2.61914V48.4526C33.3711 50.2553 30.5318 54.3284 30.5318 59.0644C30.5318 60.794 30.9105 62.4352 31.5897 63.91L14.5556 80.9341ZM18.3358 88.0942C20.134 92.055 21.6344 96.3015 22.8369 100.714C23.148 101.856 24.1763 102.662 25.3601 102.662H42.1398H58.9199C60.1034 102.662 61.1319 101.856 61.4429 100.714C62.6455 96.3015 64.1458 92.055 65.944 88.0942L57.0186 79.1738L49.5864 86.6018C49.7763 87.2729 49.8781 87.9809 49.8781 88.7128C49.8781 92.9843 46.4132 96.4472 42.1393 96.4472C37.8654 96.4472 34.4006 92.9843 34.4006 88.7128C34.4006 84.4412 37.8654 80.9783 42.1393 80.9783C42.7933 80.9783 43.4283 81.0595 44.0349 81.2122L51.5465 73.7048L47.2991 69.4598C45.745 70.2318 43.993 70.6659 42.1398 70.6659C40.2867 70.6659 38.5347 70.2318 36.9806 69.4598L18.3358 88.0942ZM69.7243 80.9341C73.3052 75.0909 77.6928 70.2253 82.8872 66.8698C84.3659 65.9145 84.7393 63.7934 83.6567 62.4056C74.2477 50.3437 59.578 18.7463 51.9046 1.53714C50.7611 -1.02762 46.8385 -0.188763 46.8385 2.61914V48.4526C50.9086 50.2553 53.7479 54.3284 53.7479 59.0644C53.7479 60.794 53.3692 62.4352 52.6902 63.9097L69.7243 80.9341Z" fill="#191B31"/>
</svg>
